<mxfile host="app.diagrams.net" agent="Mozilla/5.0 (X11; Linux x86_64) AppleWebKit/537.36 (KHTML, like Gecko) Chrome/129.0.0.0 Safari/537.36" version="24.7.17">
  <diagram name="Page-1" id="etFTTJ8TaBfdBzY4ICjI">
    <mxGraphModel dx="1832" dy="1178" grid="1" gridSize="10" guides="1" tooltips="1" connect="1" arrows="1" fold="1" page="1" pageScale="1" pageWidth="1654" pageHeight="1169" math="0" shadow="0">
      <root>
        <mxCell id="0" />
        <mxCell id="1" parent="0" />
        <mxCell id="hIDMdmYQqQBxp58ehzNk-4" value="" style="rounded=1;whiteSpace=wrap;html=1;" vertex="1" parent="1">
          <mxGeometry x="30" y="60" width="1520" height="670" as="geometry" />
        </mxCell>
        <mxCell id="hIDMdmYQqQBxp58ehzNk-2" value="&lt;h1&gt;&lt;font data-font-src=&quot;https://fonts.googleapis.com/css?family=Ubuntu+Mono&quot; face=&quot;Ubuntu Mono&quot;&gt;IELTS MOCK TEST PLATFORM&lt;/font&gt;&lt;/h1&gt;" style="ellipse;whiteSpace=wrap;html=1;aspect=fixed;fillColor=#fff2cc;strokeColor=#d6b656;" vertex="1" parent="1">
          <mxGeometry x="681.5" y="286.5" width="217" height="217" as="geometry" />
        </mxCell>
        <mxCell id="hIDMdmYQqQBxp58ehzNk-5" value="Student" style="rounded=0;whiteSpace=wrap;html=1;" vertex="1" parent="1">
          <mxGeometry x="130" y="350" width="180" height="110" as="geometry" />
        </mxCell>
        <mxCell id="hIDMdmYQqQBxp58ehzNk-6" value="Teacher" style="rounded=0;whiteSpace=wrap;html=1;" vertex="1" parent="1">
          <mxGeometry x="1190" y="350" width="180" height="110" as="geometry" />
        </mxCell>
        <mxCell id="hIDMdmYQqQBxp58ehzNk-7" value="Institute Admin" style="rounded=0;whiteSpace=wrap;html=1;" vertex="1" parent="1">
          <mxGeometry x="710" y="90" width="180" height="110" as="geometry" />
        </mxCell>
      </root>
    </mxGraphModel>
  </diagram>
</mxfile>
